<?xml version="1.0" standalone="no"?>
<!DOCTYPE svg PUBLIC "-//W3C//DTD SVG 20010904//EN"
 "http://www.w3.org/TR/2001/REC-SVG-20010904/DTD/svg10.dtd">
<svg version="1.0" xmlns="http://www.w3.org/2000/svg"
 width="544.000000pt" height="544.000000pt" viewBox="0 0 544.000000 544.000000"
 preserveAspectRatio="xMidYMid meet">
<metadata>
Created by potrace 1.11, written by Peter Selinger 2001-2013
</metadata>
<g transform="translate(0.000000,544.000000) scale(0.100000,-0.100000)"
fill="#000000" stroke="none">
<path d="M2519 5436 c-2 -2 -37 -6 -78 -10 -503 -43 -1052 -272 -1451 -605
-343 -287 -618 -656 -778 -1043 -51 -123 -112 -302 -127 -374 -2 -11 -12 -57
-23 -104 -11 -47 -24 -107 -27 -135 -4 -27 -9 -58 -11 -69 -20 -108 -27 -548
-11 -671 23 -172 59 -355 87 -442 6 -18 13 -40 15 -50 8 -40 60 -185 102 -283
314 -736 951 -1306 1718 -1536 44 -14 89 -27 100 -29 296 -68 391 -79 670 -80
249 0 335 7 515 41 544 103 1010 346 1404 732 326 321 550 685 689 1118 20 61
38 121 41 135 2 13 14 62 25 110 11 47 23 107 27 135 3 27 8 57 10 68 13 70
19 191 19 386 -1 254 -4 295 -50 545 -11 57 -37 160 -62 240 -238 772 -799
1394 -1543 1712 -96 41 -276 103 -360 124 -105 26 -269 58 -325 64 -33 4 -69
9 -80 12 -24 6 -490 15 -496 9z"/>
</g>
</svg>
